<?xml version="1.0" encoding="UTF-8" standalone="no"?>
<!-- Created with Inkscape (http://www.inkscape.org/) -->

<svg
   width="48"
   height="48"
   viewBox="0 0 12.7 12.7"
   version="1.1"
   id="svg5"
   inkscape:version="1.1.2 (0a00cf5339, 2022-02-04)"
   sodipodi:docname="ball.svg"
   inkscape:export-filename="/home/peter/Documents/OTHER/Projects/Quanrtum/icons/icon.png"
   inkscape:export-xdpi="96"
   inkscape:export-ydpi="96"
   xmlns:inkscape="http://www.inkscape.org/namespaces/inkscape"
   xmlns:sodipodi="http://sodipodi.sourceforge.net/DTD/sodipodi-0.dtd"
   xmlns="http://www.w3.org/2000/svg"
   xmlns:svg="http://www.w3.org/2000/svg">
  <sodipodi:namedview
     id="namedview7"
     pagecolor="#ffffff"
     bordercolor="#111111"
     borderopacity="1"
     inkscape:pageshadow="0"
     inkscape:pageopacity="0"
     inkscape:pagecheckerboard="1"
     inkscape:document-units="mm"
     showgrid="false"
     inkscape:zoom="10.967178"
     inkscape:cx="39.025536"
     inkscape:cy="27.126394"
     inkscape:window-width="1850"
     inkscape:window-height="1009"
     inkscape:window-x="70"
     inkscape:window-y="34"
     inkscape:window-maximized="1"
     inkscape:current-layer="layer1"
     units="px"
     width="51mm" />
  <defs
     id="defs2">
    <rect
       x="-170.51695"
       y="134.41425"
       width="279.4928"
       height="136.30362"
       id="rect2102" />
    <rect
       x="-170.51695"
       y="134.41425"
       width="279.4928"
       height="136.30362"
       id="rect2102-8" />
    <rect
       x="-170.51695"
       y="134.41425"
       width="279.4928"
       height="136.30362"
       id="rect2102-8-0" />
    <rect
       x="-170.51695"
       y="134.41425"
       width="279.4928"
       height="136.30362"
       id="rect2102-4" />
    <rect
       x="-170.51695"
       y="134.41425"
       width="279.4928"
       height="136.30362"
       id="rect2102-8-3" />
    <rect
       x="-170.51695"
       y="134.41425"
       width="279.4928"
       height="136.30362"
       id="rect2102-8-0-7" />
    <rect
       x="-170.51695"
       y="134.41425"
       width="279.4928"
       height="136.30362"
       id="rect2102-8-3-6" />
    <rect
       x="-170.51695"
       y="134.41425"
       width="279.4928"
       height="136.30362"
       id="rect2102-8-3-0" />
  </defs>
  <g
     inkscape:label="Layer 1"
     inkscape:groupmode="layer"
     id="layer1">
    <text
       xml:space="preserve"
       transform="matrix(0.71639427,0,0,0.73055307,161.21313,120.51908)"
       id="text2100-1-1-7"
       style="font-size:28px;font-family:Kinnari;-inkscape-font-specification:Kinnari;text-align:center;white-space:pre;shape-inside:url(#rect2102-8-3-6);fill:#e6e6e6;stroke:#e6e6e6;stroke-width:0.691143;stroke-miterlimit:3.9;stroke-dasharray:none;stroke-opacity:1"
       inkscape:export-filename="/home/peter/Documents/OTHER/Projects/QuantumQuart/quantum-quart.png"
       inkscape:export-xdpi="96"
       inkscape:export-ydpi="96" />
    <path
       id="path5119"
       style="fill:#800080;stroke-width:0;stroke-miterlimit:3.9"
       d="M 6.3460108,0.93355863 A 5.4317082,5.4317082 0 0 0 0.91430081,6.3652682 5.4317082,5.4317082 0 0 0 6.3460108,11.796978 5.4317082,5.4317082 0 0 0 11.77772,6.3652682 5.4317082,5.4317082 0 0 0 6.3460108,0.93355863 Z m 0,1.55287667 a 3.8558819,3.8788379 0 0 1 0.116272,0.00207 3.8558819,3.8788379 0 0 1 0.116272,0.00517 3.8558819,3.8788379 0 0 1 0.116271,0.00878 3.8558819,3.8788379 0 0 1 0.115756,0.012402 3.8558819,3.8788379 0 0 1 0.115238,0.01602 3.8558819,3.8788379 0 0 1 0.115239,0.01912 3.8558819,3.8788379 0 0 1 0.114204,0.023255 3.8558819,3.8788379 0 0 1 0.113172,0.026355 3.8558819,3.8788379 0 0 1 0.112655,0.029456 3.8558819,3.8788379 0 0 1 0.111621,0.033073 3.8558819,3.8788379 0 0 1 0.111104,0.03669 3.8558819,3.8788379 0 0 1 0.109037,0.039791 3.8558819,3.8788379 0 0 1 0.108521,0.043408 3.8558819,3.8788379 0 0 1 0.10697,0.046509 3.8558819,3.8788379 0 0 1 0.10542,0.049609 3.8558819,3.8788379 0 0 1 0.103869,0.05271 3.8558819,3.8788379 0 0 1 0.10232,0.056327 3.8558819,3.8788379 0 0 1 0.100769,0.058911 3.8558819,3.8788379 0 0 1 0.0987,0.062012 3.8558819,3.8788379 0 0 1 0.09663,0.065112 3.8558819,3.8788379 0 0 1 0.09508,0.068213 3.8558819,3.8788379 0 0 1 0.0925,0.070797 3.8558819,3.8788379 0 0 1 0.09095,0.07338 3.8558819,3.8788379 0 0 1 0.08837,0.076481 3.8558819,3.8788379 0 0 1 0.08578,0.079065 3.8558819,3.8788379 0 0 1 0.08372,0.081649 3.8558819,3.8788379 0 0 1 0.08113,0.084232 3.8558819,3.8788379 0 0 1 0.07855,0.0863 3.8558819,3.8788379 0 0 1 0.07597,0.088884 3.8558819,3.8788379 0 0 1 0.07286,0.09095 3.8558819,3.8788379 0 0 1 0.0708,0.093534 3.8558819,3.8788379 0 0 1 0.06718,0.095601 3.8558819,3.8788379 0 0 1 0.06511,0.097152 3.8558819,3.8788379 0 0 1 0.06149,0.099219 3.8558819,3.8788379 0 0 1 0.05891,0.1012857 3.8558819,3.8788379 0 0 1 0.05529,0.1028361 3.8558819,3.8788379 0 0 1 0.05271,0.1049033 3.8558819,3.8788379 0 0 1 0.04961,0.1059365 3.8558819,3.8788379 0 0 1 0.04599,0.107487 3.8558819,3.8788379 0 0 1 0.04289,0.1090374 3.8558819,3.8788379 0 0 1 0.03979,0.1100707 3.8558819,3.8788379 0 0 1 0.03617,0.1111043 3.8558819,3.8788379 0 0 1 0.03307,0.1126546 3.8558819,3.8788379 0 0 1 0.02946,0.1131715 3.8558819,3.8788379 0 0 1 0.02635,0.1142048 3.8558819,3.8788379 0 0 1 0.02274,0.1147217 3.8558819,3.8788379 0 0 1 0.01912,0.1157552 3.8558819,3.8788379 0 0 1 0.01602,0.116272 3.8558819,3.8788379 0 0 1 0.0124,0.1162719 3.8558819,3.8788379 0 0 1 0.0088,0.116789 3.8558819,3.8788379 0 0 1 0.0052,0.1173054 3.8558819,3.8788379 0 0 1 0.0015,0.1167886 3.8558819,3.8788379 0 0 1 -0.0015,0.1173057 3.8558819,3.8788379 0 0 1 -0.0052,0.1173054 3.8558819,3.8788379 0 0 1 -0.0088,0.1167887 3.8558819,3.8788379 0 0 1 -0.0124,0.1162719 3.8558819,3.8788379 0 0 1 -0.01602,0.1162719 3.8558819,3.8788379 0 0 1 -0.01912,0.1152385 3.8558819,3.8788379 0 0 1 -0.02274,0.1152385 3.8558819,3.8788379 0 0 1 -0.02635,0.114205 3.8558819,3.8788379 0 0 1 -0.02946,0.1131713 3.8558819,3.8788379 0 0 1 -0.03307,0.1121378 3.8558819,3.8788379 0 0 1 -0.03617,0.1116211 3.8558819,3.8788379 0 0 1 -0.03979,0.1100709 3.8558819,3.8788379 0 0 1 -0.04289,0.1090372 3.8558819,3.8788379 0 0 1 -0.04599,0.107487 3.8558819,3.8788379 0 0 1 -0.04961,0.1059371 3.8558819,3.8788379 0 0 1 -0.05271,0.104903 3.8558819,3.8788379 0 0 1 -0.05529,0.102836 3.8558819,3.8788379 0 0 1 -0.05891,0.101286 3.8558819,3.8788379 0 0 1 -0.06149,0.09922 3.8558819,3.8788379 0 0 1 -0.06511,0.09715 3.8558819,3.8788379 0 0 1 -0.06718,0.0956 3.8558819,3.8788379 0 0 1 -0.0708,0.09353 3.8558819,3.8788379 0 0 1 -0.07286,0.09095 3.8558819,3.8788379 0 0 1 -0.07597,0.08888 3.8558819,3.8788379 0 0 1 -0.07855,0.0863 3.8558819,3.8788379 0 0 1 -0.08113,0.08423 3.8558819,3.8788379 0 0 1 -0.08372,0.08165 3.8558819,3.8788379 0 0 1 -0.08578,0.07906 3.8558819,3.8788379 0 0 1 -0.08837,0.07648 3.8558819,3.8788379 0 0 1 -0.09095,0.07338 3.8558819,3.8788379 0 0 1 -0.0925,0.0708 3.8558819,3.8788379 0 0 1 -0.09508,0.06821 3.8558819,3.8788379 0 0 1 -0.09663,0.06511 3.8558819,3.8788379 0 0 1 -0.0987,0.06201 3.8558819,3.8788379 0 0 1 -0.100769,0.05891 3.8558819,3.8788379 0 0 1 -0.10232,0.05633 3.8558819,3.8788379 0 0 1 -0.103869,0.05271 3.8558819,3.8788379 0 0 1 -0.10542,0.04961 3.8558819,3.8788379 0 0 1 -0.10697,0.04651 3.8558819,3.8788379 0 0 1 -0.108521,0.04341 3.8558819,3.8788379 0 0 1 -0.109037,0.03979 3.8558819,3.8788379 0 0 1 -0.111104,0.03669 3.8558819,3.8788379 0 0 1 -0.111621,0.03307 3.8558819,3.8788379 0 0 1 -0.112655,0.02946 3.8558819,3.8788379 0 0 1 -0.113172,0.02635 3.8558819,3.8788379 0 0 1 -0.114204,0.02274 3.8558819,3.8788379 0 0 1 -0.115239,0.01964 3.8558819,3.8788379 0 0 1 -0.115238,0.01602 3.8558819,3.8788379 0 0 1 -0.115756,0.0124 3.8558819,3.8788379 0 0 1 -0.116271,0.0088 3.8558819,3.8788379 0 0 1 -0.116272,0.0052 3.8558819,3.8788379 0 0 1 -0.116272,0.0015 3.8558819,3.8788379 0 0 1 -0.336414,-0.01447 3.8558819,3.8788379 0 0 1 -0.333313,-0.04444 3.8558819,3.8788379 0 0 1 -0.328662,-0.07285 A 3.8558819,3.8788379 0 0 1 5.0272278,10.010524 3.8558819,3.8788379 0 0 1 4.7161358,9.880816 3.8558819,3.8788379 0 0 1 4.4179628,9.724753 3.8558819,3.8788379 0 0 1 4.1342588,9.542852 3.8558819,3.8788379 0 0 1 3.8670918,9.336663 3.8558819,3.8788379 0 0 1 3.6190448,9.108253 3.8558819,3.8788379 0 0 1 3.3921858,8.858656 3.8558819,3.8788379 0 0 1 3.1870298,8.590456 3.8558819,3.8788379 0 0 1 3.0066798,8.304685 3.8558819,3.8788379 0 0 1 2.8511328,8.004962 3.8558819,3.8788379 0 0 1 2.7224588,7.692319 3.8558819,3.8788379 0 0 1 2.6211728,7.3693413 a 3.8558819,3.8788379 0 0 1 -0.07286,-0.3302124 3.8558819,3.8788379 0 0 1 -0.04392,-0.33538 3.8558819,3.8788379 0 0 1 -0.01447,-0.3384807 3.8558819,3.8788379 0 0 1 0.01447,-0.3379636 3.8558819,3.8788379 0 0 1 0.04392,-0.3353803 3.8558819,3.8788379 0 0 1 0.07286,-0.3302124 3.8558819,3.8788379 0 0 1 0.101286,-0.3229777 3.8558819,3.8788379 0 0 1 0.128674,-0.3126423 3.8558819,3.8788379 0 0 1 0.155547,-0.3002401 3.8558819,3.8788379 0 0 1 0.18035,-0.2852539 3.8558819,3.8788379 0 0 1 0.205156,-0.2682007 3.8558819,3.8788379 0 0 1 0.226859,-0.2495971 3.8558819,3.8788379 0 0 1 0.248047,-0.2289268 3.8558819,3.8788379 0 0 1 0.267167,-0.205672 3.8558819,3.8788379 0 0 1 0.283704,-0.181901 3.8558819,3.8788379 0 0 1 0.298173,-0.1560629 3.8558819,3.8788379 0 0 1 0.311092,-0.1297077 3.8558819,3.8788379 0 0 1 0.320394,-0.1018027 3.8558819,3.8788379 0 0 1 0.328662,-0.073381 3.8558819,3.8788379 0 0 1 0.333313,-0.043925 3.8558819,3.8788379 0 0 1 0.336414,-0.014986 z" />
  </g>
</svg>
