<?xml version="1.0" encoding="UTF-8" standalone="no"?>
<!-- Created with Inkscape (http://www.inkscape.org/) -->

<svg
   width="48"
   height="48"
   viewBox="0 0 12.7 12.7"
   version="1.1"
   id="svg5"
   inkscape:version="1.1.2 (0a00cf5339, 2022-02-04)"
   sodipodi:docname="icon.png.svg"
   xmlns:inkscape="http://www.inkscape.org/namespaces/inkscape"
   xmlns:sodipodi="http://sodipodi.sourceforge.net/DTD/sodipodi-0.dtd"
   xmlns="http://www.w3.org/2000/svg"
   xmlns:svg="http://www.w3.org/2000/svg">
  <sodipodi:namedview
     id="namedview7"
     pagecolor="#ffffff"
     bordercolor="#111111"
     borderopacity="1"
     inkscape:pageshadow="0"
     inkscape:pageopacity="0"
     inkscape:pagecheckerboard="1"
     inkscape:document-units="mm"
     showgrid="false"
     inkscape:zoom="8.1202302"
     inkscape:cx="42.363331"
     inkscape:cy="38.237832"
     inkscape:window-width="1850"
     inkscape:window-height="1009"
     inkscape:window-x="70"
     inkscape:window-y="34"
     inkscape:window-maximized="1"
     inkscape:current-layer="layer1"
     units="px"
     width="51mm" />
  <defs
     id="defs2">
    <rect
       x="-170.51695"
       y="134.41425"
       width="279.4928"
       height="136.30362"
       id="rect2102" />
    <rect
       x="-170.51695"
       y="134.41425"
       width="279.4928"
       height="136.30362"
       id="rect2102-8" />
    <rect
       x="-170.51695"
       y="134.41425"
       width="279.4928"
       height="136.30362"
       id="rect2102-8-0" />
    <rect
       x="-170.51695"
       y="134.41425"
       width="279.4928"
       height="136.30362"
       id="rect2102-4" />
    <rect
       x="-170.51695"
       y="134.41425"
       width="279.4928"
       height="136.30362"
       id="rect2102-8-3" />
    <rect
       x="-170.51695"
       y="134.41425"
       width="279.4928"
       height="136.30362"
       id="rect2102-8-0-7" />
    <rect
       x="-170.51695"
       y="134.41425"
       width="279.4928"
       height="136.30362"
       id="rect2102-8-3-6" />
    <rect
       x="-170.51695"
       y="134.41425"
       width="279.4928"
       height="136.30362"
       id="rect2102-8-3-0" />
  </defs>
  <g
     inkscape:label="Layer 1"
     inkscape:groupmode="layer"
     id="layer1">
    <text
       xml:space="preserve"
       transform="matrix(0.71639427,0,0,0.73055307,161.21313,120.51908)"
       id="text2100-1-1-7"
       style="font-size:28px;font-family:Kinnari;-inkscape-font-specification:Kinnari;text-align:center;white-space:pre;shape-inside:url(#rect2102-8-3-6);fill:#e6e6e6;stroke:#e6e6e6;stroke-width:0.691143;stroke-miterlimit:3.9;stroke-dasharray:none;stroke-opacity:1"
       inkscape:export-filename="/home/peter/Documents/OTHER/Projects/QuantumQuart/quantum-quart.png"
       inkscape:export-xdpi="96"
       inkscape:export-ydpi="96" />
    <path
       id="path24513-9"
       style="fill:#f2f2f2;stroke:#f2f2f2;stroke-width:0;stroke-miterlimit:3.9;stroke-dasharray:none"
       d="M 10.47402,1.8608752 C 8.1891533,-0.1325689 4.7134943,1.3157227 2.8829949,3.2207877 0.91043594,5.0891296 -0.51147225,8.7946152 1.8596756,10.903777 3.6747608,12.2919 6.26588,11.59686 7.9825,10.393847 9.9679863,9.0150819 11.529208,6.7677229 11.493931,4.3101642 11.466001,3.4101947 11.139853,2.4965047 10.47402,1.8608752 Z M 4.9052512,10.118952 C 3.7252525,10.632016 3.2098464,10.683491 2.5720829,10.085463 1.9664202,9.4585941 1.7145975,8.3471413 2.0716046,7.3864166 2.9460721,5.2272946 5.3335404,2.9828148 7.7817717,2.1932286 8.5656325,2.0129773 9.1150025,2.1691571 9.729995,2.7547709 c 0.624695,0.5948517 0.654387,1.477819 0.457561,2.072763 -1.1239509,2.1976248 -3.4347095,4.458716 -5.2823048,5.2914371 z"
       sodipodi:nodetypes="ccccccccccscc"
       inkscape:export-filename="/home/peter/Documents/OTHER/Projects/QuantumQuart/quantum-quart.png"
       inkscape:export-xdpi="96"
       inkscape:export-ydpi="96" />
    <path
       style="fill:#f2f2f2;stroke:#f2f2f2;stroke-width:0;stroke-miterlimit:3.9;stroke-dasharray:none;stroke-opacity:1"
       d="m 12.657311,12.014001 c 0,0 -1.082555,-0.111064 -2.300859,-1.48105 C 8.8609759,8.7969731 8.036279,7.6091939 6.7165626,6.5133881 5.9778235,5.8999887 5.0948337,5.8150697 4.338695,6.3921473 c 0.6144038,0.168716 1.0381056,0.5046439 1.5182814,1.0702694 1.1631359,1.3701318 2.0174659,2.8726953 3.3989606,4.0279873 0.7318303,0.60713 1.562321,0.998242 3.401374,0.523597 z"
       id="path28213-6-2"
       sodipodi:nodetypes="ccscscc"
       inkscape:export-filename="/home/peter/Documents/OTHER/Projects/QuantumQuart/quantum-quart.png"
       inkscape:export-xdpi="96"
       inkscape:export-ydpi="96" />
  </g>
</svg>
