<?xml version="1.0" encoding="UTF-8" standalone="no"?>
<!-- Created with Inkscape (http://www.inkscape.org/) -->

<svg
   width="113mm"
   height="38mm"
   viewBox="0 0 113 38"
   version="1.1"
   id="svg5"
   inkscape:version="1.1.2 (0a00cf5339, 2022-02-04)"
   sodipodi:docname="logo.svg"
   xmlns:inkscape="http://www.inkscape.org/namespaces/inkscape"
   xmlns:sodipodi="http://sodipodi.sourceforge.net/DTD/sodipodi-0.dtd"
   xmlns="http://www.w3.org/2000/svg"
   xmlns:svg="http://www.w3.org/2000/svg">
  <sodipodi:namedview
     id="namedview7"
     pagecolor="#ffffff"
     bordercolor="#111111"
     borderopacity="1"
     inkscape:pageshadow="0"
     inkscape:pageopacity="0"
     inkscape:pagecheckerboard="1"
     inkscape:document-units="mm"
     showgrid="false"
     inkscape:zoom="0.75366162"
     inkscape:cx="165.85693"
     inkscape:cy="510.17591"
     inkscape:window-width="1850"
     inkscape:window-height="1009"
     inkscape:window-x="70"
     inkscape:window-y="34"
     inkscape:window-maximized="1"
     inkscape:current-layer="layer1"
     units="mm"
     width="51mm" />
  <defs
     id="defs2">
    <rect
       x="-170.51695"
       y="134.41425"
       width="279.4928"
       height="136.30362"
       id="rect2102" />
    <rect
       x="-170.51695"
       y="134.41425"
       width="279.4928"
       height="136.30362"
       id="rect2102-8" />
    <rect
       x="-170.51695"
       y="134.41425"
       width="279.4928"
       height="136.30362"
       id="rect2102-8-0" />
    <rect
       x="-170.51695"
       y="134.41425"
       width="279.4928"
       height="136.30362"
       id="rect2102-4" />
    <rect
       x="-170.51695"
       y="134.41425"
       width="279.4928"
       height="136.30362"
       id="rect2102-8-3" />
    <rect
       x="-170.51695"
       y="134.41425"
       width="279.4928"
       height="136.30362"
       id="rect2102-8-0-7" />
    <rect
       x="-170.51695"
       y="134.41425"
       width="279.4928"
       height="136.30362"
       id="rect2102-8-3-6" />
    <rect
       x="-170.51695"
       y="134.41425"
       width="279.4928"
       height="136.30362"
       id="rect2102-8-3-0" />
  </defs>
  <g
     inkscape:label="Layer 1"
     inkscape:groupmode="layer"
     id="layer1">
    <g
       aria-label="uar"
       transform="matrix(0.71639427,0,0,0.73055307,72.009786,-84.480957)"
       id="text2100-1-1"
       style="font-size:28px;font-family:Kinnari;-inkscape-font-specification:Kinnari;text-align:center;white-space:pre;shape-inside:url(#rect2102-8-3);fill:#e6e6e6;stroke:#e6e6e6;stroke-width:0.691143;stroke-miterlimit:3.9">
      <path
         d="M -51.599609,153.14453 V 143.875 h 2.515625 v 9.17383 q 0,2.17383 0.847656,3.26758 0.847656,1.08007 2.542969,1.08007 2.037109,0 3.21289,-1.29882 1.189453,-1.29883 1.189453,-3.54102 V 143.875 h 2.515625 v 15.3125 h -2.515625 v -2.35156 q -0.916015,1.39453 -2.132812,2.07812 -1.203125,0.66992 -2.802734,0.66992 -2.638672,0 -4.00586,-1.64062 -1.367187,-1.64063 -1.367187,-4.79883 z m 6.330078,-9.63867 z"
         style="font-family:'Noto Sans Nabataean';-inkscape-font-specification:'Noto Sans Nabataean, Normal'"
         id="path107128" />
      <path
         d="m -26.634766,151.49023 q -3.048828,0 -4.224609,0.69727 -1.175781,0.69727 -1.175781,2.37891 0,1.33984 0.875,2.13281 0.888672,0.7793 2.40625,0.7793 2.091797,0 3.349609,-1.47657 1.271485,-1.49023 1.271485,-3.95117 v -0.56055 z m 5.017579,-1.03906 v 8.73633 h -2.515625 v -2.32422 q -0.861329,1.39453 -2.146485,2.06445 -1.285156,0.65625 -3.144531,0.65625 -2.351563,0 -3.746094,-1.3125 -1.380859,-1.32617 -1.380859,-3.54101 0,-2.58399 1.722656,-3.89649 1.736328,-1.3125 5.167969,-1.3125 h 3.527344 v -0.24609 q 0,-1.73633 -1.148438,-2.67969 -1.134766,-0.95703 -3.199219,-0.95703 -1.3125,0 -2.55664,0.31445 -1.244141,0.31446 -2.392578,0.94336 v -2.32421 q 1.380859,-0.53321 2.679687,-0.79297 1.298828,-0.27344 2.529297,-0.27344 3.322266,0 4.962891,1.72266 1.640625,1.72265 1.640625,5.22265 z"
         style="font-family:'Noto Sans Nabataean';-inkscape-font-specification:'Noto Sans Nabataean, Normal'"
         id="path107130" />
      <path
         d="m -8.4803917,145.95768 c -2.2100713,0.0604 -4.4264883,3.2e-4 -5.5065263,0.77534 -0.709135,0.61275 -0.753688,2.6563 -0.753688,4.38807 v 8.06641 h -2.529297 l 0.01329,-12.01374 c 1.152157,-2.78285 1.326226,-3.44809 4.805745,-3.51243 0.94551,-0.086 2.8433348,-0.0475 4.1360863,-0.0188 z"
         style="font-family:'Noto Sans Nabataean';-inkscape-font-specification:'Noto Sans Nabataean, Normal'"
         id="path107132"
         sodipodi:nodetypes="ccscccccc" />
    </g>
    <g
       aria-label="tum"
       transform="matrix(0.71639427,0,0,0.73055307,109.11944,-84.480957)"
       id="text2100-1-1-8"
       style="font-size:28px;font-family:Kinnari;-inkscape-font-specification:Kinnari;text-align:center;white-space:pre;shape-inside:url(#rect2102-8-3-0);fill:#e6e6e6;stroke:#e6e6e6;stroke-width:0.691143;stroke-miterlimit:3.9">
      <path
         d="m -55.120861,139.52734 0.01116,4.24985 5.170479,0.0978 -0.05443,2.16656 -5.08663,0.0761 -0.04058,8.02488 c -0.0063,1.24868 0.16862,2.05078 0.50586,2.40625 0.346354,0.35547 1.04362,0.5332 2.091797,0.5332 h 2.583984 v 2.10547 h -2.583984 c -1.941407,0 -3.281251,-0.36003 -4.019532,-1.08008 -0.738281,-0.72917 -1.28268,-2.05851 -1.107422,-3.96484 l 0.0064,-8.10412 -2.6372,-0.0808 0.16561,-2.31515 2.421589,0.045 0.04364,-4.16018 z"
         style="font-family:'Noto Sans Nabataean';-inkscape-font-specification:'Noto Sans Nabataean, Normal'"
         id="path107135"
         sodipodi:nodetypes="cccccscsccscscccccc" />
      <path
         d="M -46.151739,153.14453 V 143.875 h 2.515625 v 9.17383 q 0,2.17383 0.847656,3.26758 0.847657,1.08007 2.542969,1.08007 2.037109,0 3.212891,-1.29882 1.189453,-1.29883 1.189453,-3.54102 V 143.875 h 2.515625 v 15.3125 h -2.515625 v -2.35156 q -0.916016,1.39453 -2.132813,2.07812 -1.203125,0.66992 -2.802734,0.66992 -2.638672,0 -4.005859,-1.64062 -1.367188,-1.64063 -1.367188,-4.79883 z m 6.330078,-9.63867 z"
         style="font-family:'Noto Sans Nabataean';-inkscape-font-specification:'Noto Sans Nabataean, Normal'"
         id="path107137" />
      <path
         d="m -16.962658,146.81445 q 0.94336,-1.69531 2.25586,-2.50195 1.3125,-0.80664 3.089844,-0.80664 2.3925781,0 3.6914062,1.68164 1.2988281,1.66797 1.2988281,4.75781 v 9.24219 h -2.5292968 v -9.16016 q 0,-2.20117 -0.7792969,-3.26757 -0.7792966,-1.06641 -2.3789066,-1.06641 -1.955078,0 -3.089844,1.29883 -1.134765,1.29883 -1.134765,3.54101 v 8.6543 h -2.529297 v -9.16016 q 0,-2.21484 -0.779297,-3.26757 -0.779297,-1.06641 -2.40625,-1.06641 -1.927735,0 -3.0625,1.3125 -1.134766,1.29883 -1.134766,3.52734 v 8.6543 h -2.529297 V 143.875 h 2.529297 v 2.37891 q 0.861328,-1.40821 2.064453,-2.07813 1.203125,-0.66992 2.857422,-0.66992 1.667969,0 2.830078,0.84766 1.175782,0.84765 1.736328,2.46093 z"
         style="font-family:'Noto Sans Nabataean';-inkscape-font-specification:'Noto Sans Nabataean, Normal'"
         id="path107139" />
    </g>
    <text
       xml:space="preserve"
       transform="matrix(0.71639427,0,0,0.73055307,161.21313,120.51908)"
       id="text2100-1-1-7"
       style="font-size:28px;font-family:Kinnari;-inkscape-font-specification:Kinnari;text-align:center;white-space:pre;shape-inside:url(#rect2102-8-3-6);fill:#e6e6e6;stroke:#e6e6e6;stroke-width:0.691143;stroke-miterlimit:3.9;stroke-dasharray:none;stroke-opacity:1"
       inkscape:export-filename="/home/peter/Documents/OTHER/Projects/QuantumQuart/quantum-quart.png"
       inkscape:export-xdpi="96"
       inkscape:export-ydpi="96" />
    <path
       id="path24513-9"
       style="fill:#e6e6e6;stroke:#000000;stroke-width:0;stroke-miterlimit:3.9;stroke-dasharray:none"
       d="m 32.43295,7.1576075 c -5.87289,-5.20834 -14.80652,-1.42434 -19.51153,3.5530895 -5.0701503,4.88148 -8.7249403,14.56293 -2.63028,20.07361 4.66539,3.6268 11.32545,1.81084 15.73775,-1.33231 5.10338,-3.60235 9.11625,-9.4741 9.02558,-15.89505 -0.0718,-2.35138 -0.9101,-4.7386095 -2.62152,-6.3993395 z M 18.11931,28.733767 c -3.033,1.3405 -4.35777,1.47499 -5.99704,-0.0875 -1.55676,-1.63784 -2.2040303,-4.54177 -1.2864,-7.05189 2.24768,-5.64121 8.38429,-11.50544 14.67708,-13.5684195 2.01479,-0.47095 3.42686,-0.0629 5.0076,1.4671598 1.60568,1.5541897 1.682,3.8611497 1.17609,5.4155797 -2.88894,5.74181 -8.82838,11.64944 -13.57733,13.82512 z"
       sodipodi:nodetypes="ccccccccccscc"
       inkscape:export-filename="/home/peter/Documents/OTHER/Projects/QuantumQuart/quantum-quart.png"
       inkscape:export-xdpi="96"
       inkscape:export-ydpi="96" />
    <path
       style="fill:#e6e6e6;stroke:#000000;stroke-width:0;stroke-miterlimit:3.9;stroke-dasharray:none;stroke-opacity:1"
       d="m 38.044754,33.685027 c 0,0 -2.782539,-0.29018 -5.913995,-3.86959 -3.843886,-4.53565 -5.963639,-7.639 -9.355761,-10.50205 -1.89881,-1.60265 -4.168396,-1.82452 -6.111932,-0.31677 1.579229,0.44081 2.668286,1.3185 3.902502,2.79633 2.989658,3.57979 5.185578,7.50559 8.73649,10.52406 1.881054,1.58627 4.0157,2.60814 8.742696,1.36802 z"
       id="path28213-6-2"
       sodipodi:nodetypes="ccscscc"
       inkscape:export-filename="/home/peter/Documents/OTHER/Projects/QuantumQuart/quantum-quart.png"
       inkscape:export-xdpi="96"
       inkscape:export-ydpi="96" />
  </g>
</svg>
