<?xml version="1.0" encoding="UTF-8" standalone="no"?>
<!-- Created with Inkscape (http://www.inkscape.org/) -->

<svg
   width="48"
   height="48"
   viewBox="0 0 12.7 12.7"
   version="1.1"
   id="svg905"
   sodipodi:docname="ball.svg"
   inkscape:version="1.1.2 (0a00cf5339, 2022-02-04)"
   xmlns:inkscape="http://www.inkscape.org/namespaces/inkscape"
   xmlns:sodipodi="http://sodipodi.sourceforge.net/DTD/sodipodi-0.dtd"
   xmlns="http://www.w3.org/2000/svg"
   xmlns:svg="http://www.w3.org/2000/svg">
  <sodipodi:namedview
     id="namedview907"
     pagecolor="#ffffff"
     bordercolor="#111111"
     borderopacity="1"
     inkscape:pageshadow="0"
     inkscape:pageopacity="0"
     inkscape:pagecheckerboard="1"
     inkscape:document-units="mm"
     showgrid="false"
     units="px"
     inkscape:zoom="7.8009934"
     inkscape:cx="30.252557"
     inkscape:cy="33.136805"
     inkscape:window-width="1850"
     inkscape:window-height="1009"
     inkscape:window-x="70"
     inkscape:window-y="34"
     inkscape:window-maximized="1"
     inkscape:current-layer="layer1" />
  <defs
     id="defs902" />
  <g
     inkscape:label="Layer 1"
     inkscape:groupmode="layer"
     id="layer1">
    <circle
       style="fill:#500064;fill-opacity:1;stroke:#9100b9;stroke-width:0.772445;stroke-miterlimit:3.9;stroke-dasharray:none;stroke-opacity:0.996246"
       id="path33618"
       cx="6.3885384"
       cy="6.3438821"
       r="5.4094672" />
    <path
       style="fill:#cc005f;fill-opacity:1;stroke:none;stroke-width:0.772445;stroke-miterlimit:3.9;stroke-dasharray:none;stroke-opacity:0.996246"
       d="M 6.0465028,5.8658831 C 5.7868438,4.9872183 6.2939788,3.8908275 6.7874207,3.4510998 7.2808624,3.0113717 8.5395201,2.6806891 8.5395201,2.6806891 7.7942633,3.187379 7.7559479,4.3997788 8.4134444,4.4120839 12.651002,4.6890869 10.639369,9.1550955 8.2075829,9.0049515 Z"
       id="path37596"
       sodipodi:nodetypes="cscccc" />
    <path
       style="fill:#500064;fill-opacity:1;stroke:none;stroke-width:0.772445;stroke-miterlimit:3.9;stroke-dasharray:none;stroke-opacity:0.996246"
       d="M 3.3074994,2.3789794 C 1.3330504,4.5018955 1.5109633,7.2951265 3.2282747,9.2668598 5.808439,11.860119 8.6280895,10.430041 9.4961923,8.6598193 10.248206,7.1263245 9.3744171,5.3700053 7.5834562,5.3564272 5.7445458,5.4141585 5.5335993,6.3478419 4.2290431,5.5100551 3.4211677,4.991237 3.3074982,2.3789794 3.3074982,2.3789794 Z"
       id="path35152-0"
       sodipodi:nodetypes="ccscsc" />
    <path
       style="fill:#83008d;fill-opacity:1;stroke:none;stroke-width:0.772445;stroke-miterlimit:3.9;stroke-dasharray:none;stroke-opacity:0.996246"
       d="M 3.5960037,3.3488013 C 1.8685966,5.2060989 2.02425,7.649842 3.5266923,9.3748727 5.7840267,11.643666 8.2508844,10.392516 9.0103703,8.8437848 9.6682927,7.5021605 8.9038318,5.9655911 7.3369554,5.9537119 5.7281284,6.0042197 5.5435757,6.8210812 4.4022449,6.088118 3.695451,5.6342143 3.5960037,3.3488013 3.5960037,3.3488013 Z"
       id="path35152"
       sodipodi:nodetypes="ccscsc" />
  </g>
</svg>
